<?xml version="1.0" encoding="UTF-8"?>
<svg width="24px" height="18px" viewBox="0 0 24 18" version="1.1" xmlns="http://www.w3.org/2000/svg" xmlns:xlink="http://www.w3.org/1999/xlink">
    <!-- Generator: Sketch 48.2 (47327) - http://www.bohemiancoding.com/sketch -->
    <title>icon/filter</title>
    <desc>Created with Sketch.</desc>
    <defs></defs>
    <g id="icon/filter" stroke="none" stroke-width="1" fill="none" fill-rule="evenodd" transform="translate(0.000000, -1.000000)">
        <g fill="#FFFFFF" fill-rule="nonzero" id="Shape">
            <path d="M0.75,4.75 L7.4303589,4.75 C7.7659302,6.0452271 8.9342652,7.0087891 10.3330078,7.0087891 C11.7317504,7.0087891 12.9000854,6.0452271 13.2356567,4.75 L23.25,4.75 C23.6640625,4.75 24,4.4140625 24,4 C24,3.5859375 23.6640625,3.25 23.25,3.25 L13.2356567,3.25 C12.9000854,1.9547729 11.7317504,0.9912109 10.3330078,0.9912109 C8.9342652,0.9912109 7.7659302,1.9547729 7.4303589,3.25 L0.75,3.25 C0.3359375,3.25 0,3.5859375 0,4 C0,4.4140625 0.3359375,4.75 0.75,4.75 Z M10.3330078,2.4912109 C11.1650391,2.4912109 11.8417969,3.1679687 11.8417969,4 C11.8417969,4.8320313 11.1650391,5.5087891 10.3330078,5.5087891 C9.5009765,5.5087891 8.8242188,4.8320313 8.8242188,4 C8.8242188,3.1679687 9.5009766,2.4912109 10.3330078,2.4912109 Z"></path>
            <path d="M23.25,9.25 L21.6438599,9.25 C21.3082886,7.9547729 20.1399536,6.9912109 18.741211,6.9912109 C17.3424684,6.9912109 16.1741333,7.9547729 15.838562,9.25 L0.75,9.25 C0.3359375,9.25 0,9.5859375 0,10 C0,10.4140625 0.3359375,10.75 0.75,10.75 L15.838562,10.75 C16.1741333,12.0452271 17.3424683,13.0087891 18.7412109,13.0087891 C20.1399535,13.0087891 21.3082885,12.0452271 21.6438598,10.75 L23.25,10.75 C23.6640625,10.75 24,10.4140625 24,10 C24,9.5859375 23.6640625,9.25 23.25,9.25 Z M18.7412109,11.5087891 C17.9091796,11.5087891 17.2324218,10.8320313 17.2324218,10 C17.2324218,9.1679687 17.9091796,8.4912109 18.7412109,8.4912109 C19.5732422,8.4912109 20.25,9.1679688 20.25,10 C20.25,10.8320312 19.5732422,11.5087891 18.7412109,11.5087891 Z"></path>
            <path d="M23.25,15.25 L8.7181396,15.25 C8.3826293,13.9547729 7.2143554,12.9912109 5.8164062,12.9912109 C4.4176635,12.9912109 3.2493286,13.9547729 2.9137573,15.25 L0.75,15.25 C0.3359375,15.25 0,15.5859375 0,16 C0,16.4140625 0.3359375,16.75 0.75,16.75 L2.9137573,16.75 C3.2493286,18.0452271 4.4176636,19.0087891 5.8164062,19.0087891 C7.2143554,19.0087891 8.3826293,18.0452271 8.7181396,16.75 L23.25,16.75 C23.6640625,16.75 24,16.4140625 24,16 C24,15.5859375 23.6640625,15.25 23.25,15.25 Z M5.8164063,17.5087891 C4.984375,17.5087891 4.3076172,16.8320313 4.3076172,16 C4.3076172,15.1679687 4.984375,14.4912109 5.8164063,14.4912109 C6.647461,14.4912109 7.3242188,15.1679687 7.3242188,16 C7.3242188,16.8320313 6.6474609,17.5087891 5.8164063,17.5087891 Z"></path>
        </g>
    </g>
</svg>