<?xml version="1.0" encoding="UTF-8"?>
<svg width="12px" height="23px" viewBox="0 0 12 23" version="1.1" xmlns="http://www.w3.org/2000/svg" xmlns:xlink="http://www.w3.org/1999/xlink">
    <!-- Generator: Sketch 48.2 (47327) - http://www.bohemiancoding.com/sketch -->
    <title>post/options</title>
    <desc>Created with Sketch.</desc>
    <defs>
        <path d="M338,32.2318841 C336.895431,32.2318841 336,31.3299649 336,30.2173913 C336,29.1048177 336.895431,28.2028986 338,28.2028986 C339.104569,28.2028986 340,29.1048177 340,30.2173913 C340,31.3299649 339.104569,32.2318841 338,32.2318841 Z M338,26.1884058 C336.895431,26.1884058 336,25.2864867 336,24.173913 C336,23.0613394 336.895431,22.1594203 338,22.1594203 C339.104569,22.1594203 340,23.0613394 340,24.173913 C340,25.2864867 339.104569,26.1884058 338,26.1884058 Z M338,20.1449275 C336.895431,20.1449275 336,19.2430084 336,18.1304348 C336,17.0178612 336.895431,16.115942 338,16.115942 C339.104569,16.115942 340,17.0178612 340,18.1304348 C340,19.2430084 339.104569,20.1449275 338,20.1449275 Z" id="path-1"></path>
        <filter x="-175.0%" y="-31.0%" width="450.0%" height="186.9%" filterUnits="objectBoundingBox" id="filter-2">
            <feOffset dx="0" dy="2" in="SourceAlpha" result="shadowOffsetOuter1"></feOffset>
            <feGaussianBlur stdDeviation="2" in="shadowOffsetOuter1" result="shadowBlurOuter1"></feGaussianBlur>
            <feColorMatrix values="0 0 0 0 0   0 0 0 0 0   0 0 0 0 0  0 0 0 0.5 0" type="matrix" in="shadowBlurOuter1"></feColorMatrix>
        </filter>
    </defs>
    <g id="search-result/post/horizontal/no-like" stroke="none" stroke-width="1" fill="none" fill-rule="evenodd" transform="translate(-332.000000, -57.000000)">
        <g id="body">
            <g transform="translate(0.000000, 42.347826)">
                <g id="post/options">
                    <use fill="black" fill-opacity="1" filter="url(#filter-2)" xlink:href="#path-1"></use>
                    <use fill="#FFFFFF" fill-rule="evenodd" xlink:href="#path-1"></use>
                </g>
            </g>
        </g>
    </g>
</svg>