<?xml version="1.0" encoding="UTF-8"?>
<svg width="20px" height="20px" viewBox="0 0 20 20" version="1.1" xmlns="http://www.w3.org/2000/svg" xmlns:xlink="http://www.w3.org/1999/xlink">
    <!-- Generator: Sketch 48.2 (47327) - http://www.bohemiancoding.com/sketch -->
    <title>loading</title>
    <desc>Created with Sketch.</desc>
    <defs></defs>
    <g id="loading" stroke="none" stroke-width="1" fill="none" fill-rule="evenodd">
        <g fill-rule="nonzero" id="Shape">
            <path d="M9.6875,3.84615385 C9.15625,3.84615385 8.75,3.41137124 8.75,2.84280936 L8.75,1.00334448 C8.75,0.434782609 9.15625,0 9.6875,0 C10.21875,0 10.625,0.434782609 10.625,1.00334448 L10.625,2.84280936 C10.625,3.37792642 10.21875,3.84615385 9.6875,3.84615385 Z" fill="#76FFE5"></path>
            <path d="M9.6875,20 C9.15625,20 8.75,19.5652174 8.75,18.9966555 L8.75,17.1571906 C8.75,16.5886288 9.15625,16.1538462 9.6875,16.1538462 C10.21875,16.1538462 10.625,16.5886288 10.625,17.1571906 L10.625,18.9966555 C10.625,19.5652174 10.21875,20 9.6875,20 Z" fill="#0DBFBA"></path>
            <path d="M6.01456105,4.61538462 C5.72599731,4.61538462 5.43743357,4.43535155 5.26429533,4.07528543 L4.48517323,2.38297463 C4.25432224,1.87888205 4.39860411,1.19475641 4.80259334,0.906703511 C5.20658258,0.61865061 5.75485368,0.798683673 5.98570467,1.30277625 L6.76482677,2.99508705 C6.99567776,3.49917962 6.85139589,4.18330526 6.44740666,4.47135816 C6.33198116,4.54337139 6.15884292,4.61538462 6.01456105,4.61538462 Z" fill="#BBFFF2"></path>
            <path d="M14.764561,19.2307692 C14.4759973,19.2307692 14.1874336,19.0507362 14.0142953,18.69067 L13.2351732,16.9983592 C13.0043222,16.4942667 13.1486041,15.810141 13.5525933,15.5220881 C13.9565826,15.2340352 14.5048537,15.4140683 14.7357047,15.9181609 L15.5148268,17.6104717 C15.7456778,18.1145642 15.6013959,18.7986899 15.1974067,19.0867428 C15.0531248,19.1947626 14.9088429,19.2307692 14.764561,19.2307692 Z" fill="#1BCEB8"></path>
            <path d="M3.50117474,6.92307692 C3.3546482,6.92307692 3.20812166,6.89649611 3.06159512,6.81675369 L1.68424564,6.09907184 C1.27397133,5.88642537 1.12744479,5.38139 1.36188725,5.00925867 C1.59632972,4.63712734 2.15313057,4.5042233 2.56340488,4.71686977 L3.94075436,5.43455162 C4.35102867,5.64719809 4.49755521,6.15223346 4.26311275,6.52436479 C4.0872809,6.79017288 3.79422782,6.92307692 3.50117474,6.92307692 Z" fill="#E1FFF9"></path>
            <path d="M17.90548,15.3846154 C17.7589535,15.3846154 17.612427,15.3580346 17.4659004,15.2782921 L16.0592456,14.5606103 C15.6489713,14.3479638 15.5024448,13.8429285 15.7368873,13.4707971 C15.9713297,13.0986658 16.5281306,12.9657618 16.9384049,13.1784082 L18.3157544,13.8960901 C18.7260287,14.1087365 18.8725552,14.6137719 18.6381127,14.9859032 C18.4915862,15.2517113 18.1985331,15.3846154 17.90548,15.3846154 Z" fill="#26DBC0"></path>
            <path d="M2.77173913,11.5384615 L0.97826087,11.5384615 C0.423913043,11.5384615 0,11.0384615 0,10.3846154 C0,9.73076923 0.423913043,9.23076923 0.97826087,9.23076923 L2.77173913,9.23076923 C3.32608696,9.23076923 3.75,9.73076923 3.75,10.3846154 C3.75,11.0384615 3.29347826,11.5384615 2.77173913,11.5384615 Z" fill="#F3FFFD"></path>
            <path d="M19.0217391,11.5384615 L17.2282609,11.5384615 C16.673913,11.5384615 16.25,11.0384615 16.25,10.3846154 C16.25,9.73076923 16.673913,9.23076923 17.2282609,9.23076923 L19.0217391,9.23076923 C19.576087,9.23076923 20,9.73076923 20,10.3846154 C20,11.0384615 19.576087,11.5384615 19.0217391,11.5384615 Z" fill="#2EE5C6"></path>
            <path d="M2.12382526,15.3846154 C1.83077218,15.3846154 1.5377191,15.2517113 1.36188725,14.9859032 C1.12744479,14.6137719 1.27397133,14.1087365 1.68424564,13.8960901 L3.06159512,13.1784082 C3.47186943,12.9657618 4.02867028,13.0986658 4.26311275,13.4707971 C4.49755521,13.8429285 4.35102867,14.3479638 3.94075436,14.5606103 L2.56340488,15.2782921 C2.44618365,15.3580346 2.29965711,15.3846154 2.12382526,15.3846154 Z" fill="#11AEBA"></path>
            <path d="M16.4988253,6.92307692 C16.2057722,6.92307692 15.9127191,6.79017288 15.7368873,6.52436479 C15.5024448,6.15223346 15.6489713,5.64719809 16.0592456,5.43455162 L17.4365951,4.71686977 C17.8468694,4.5042233 18.4036703,4.63712734 18.6381127,5.00925867 C18.8725552,5.38139 18.7260287,5.88642537 18.3157544,6.09907184 L16.9384049,6.81675369 C16.7918783,6.89649611 16.6453518,6.92307692 16.4988253,6.92307692 Z" fill="#3BEDCB"></path>
            <path d="M5.23543895,19.2307692 C5.09115708,19.2307692 4.94687521,19.1947626 4.80259334,19.0867428 C4.39860411,18.7986899 4.25432224,18.1145642 4.48517323,17.6104717 L5.26429533,15.9181609 C5.49514632,15.4140683 6.04341742,15.2340352 6.44740666,15.5220881 C6.85139589,15.810141 6.99567776,16.4942667 6.76482677,16.9983592 L5.98570467,18.69067 C5.81256643,19.0507362 5.52400269,19.2307692 5.23543895,19.2307692 Z" fill="#0FB8BC"></path>
            <path d="M13.985439,4.61538462 C13.8411571,4.61538462 13.6968752,4.579378 13.5525933,4.47135816 C13.1486041,4.18330526 13.0043222,3.49917962 13.2351732,2.99508705 L14.0142953,1.30277625 C14.2451463,0.798683673 14.7934174,0.61865061 15.1974067,0.906703511 C15.6013959,1.19475641 15.7456778,1.87888205 15.5148268,2.38297463 L14.7357047,4.07528543 C14.5625664,4.39934494 14.2740027,4.61538462 13.985439,4.61538462 Z" fill="#57F7D8"></path>
        </g>
    </g>
</svg>