<?xml version="1.0" encoding="UTF-8"?>
<svg width="18px" height="15px" viewBox="0 0 18 15" version="1.1" xmlns="http://www.w3.org/2000/svg" xmlns:xlink="http://www.w3.org/1999/xlink">
    <!-- Generator: Sketch 48.2 (47327) - http://www.bohemiancoding.com/sketch -->
    <title>comment/icon</title>
    <desc>Created with Sketch.</desc>
    <defs></defs>
    <g id="search-result/post/horizontal/no-like" stroke="none" stroke-width="1" fill="none" fill-rule="evenodd" transform="translate(-312.000000, -16.000000)">
        <g fill="#4A4A4A" fill-rule="nonzero" id="header">
            <g transform="translate(16.000000, 5.057971)">
                <g id="counts" transform="translate(247.000000, 10.079710)">
                    <g id="comments" transform="translate(49.000000, 1.000000)">
                        <path d="M16.7948752,2.92350943 C15.9912123,2.02092617 14.8995847,1.30799663 13.5202736,0.784785117 C12.1409978,0.261637906 10.6341168,0 9.00015832,0 C7.78134767,0 6.61615441,0.154481462 5.50457855,0.463508687 C4.39300269,0.772503761 3.4354537,1.19016634 2.63186123,1.71639996 C1.82812802,2.24269789 1.18876521,2.86840407 0.713245053,3.59348636 C0.237724896,4.31860081 0,5.07898396 0,5.87450723 C0,6.79236181 0.302917176,7.65241042 0.908997801,8.45404222 C1.51507843,9.25557756 2.34365013,9.92880167 3.39509993,10.4734252 C3.32135842,10.71812 3.2343181,10.9507263 3.13383826,11.1708583 C3.0333936,11.3911512 2.94301099,11.5718993 2.86265527,11.7126205 C2.78222917,11.8533417 2.67351674,12.0094628 2.53613096,12.1807909 C2.39895627,12.3520869 2.29516931,12.4730036 2.22484046,12.5432839 C2.15458197,12.6136927 2.0390794,12.7301405 1.8782624,12.8920808 C1.71765649,13.0543748 1.61379917,13.1598594 1.5669719,13.2089205 C1.56018177,13.2117819 1.53344344,13.2395275 1.48658099,13.29145 C1.43975373,13.3433725 1.41625214,13.3693498 1.41625214,13.3693498 L1.35598534,13.4518471 C1.32245688,13.4978539 1.30739897,13.5268855 1.31070608,13.5388775 C1.31408356,13.5508695 1.30739897,13.5816694 1.29065233,13.6305376 C1.27387051,13.6795987 1.27559443,13.7163463 1.29564818,13.740909 L1.29564818,13.7500397 C1.32256242,13.8602825 1.38114048,13.9489526 1.47148791,14.0161465 C1.56183533,14.0834046 1.66407427,14.1109894 1.77785292,14.0985473 C2.21323039,14.0496148 2.59488493,13.9826139 2.92295724,13.896773 C4.67748449,13.4866014 6.21771806,12.7463764 7.54355241,11.6752942 C8.04567017,11.7242267 8.53118202,11.7487894 8.99994723,11.7487894 C10.6338705,11.7487894 12.1406812,11.4871515 13.5200977,10.9637792 C14.8995143,10.440632 15.9910364,9.72767034 16.7945585,8.82524783 C17.5982214,7.92305037 18,6.93922369 18,5.87447508 C18.0000352,4.80969432 17.5982917,3.82593194 16.7948752,2.92350943 Z" id="comment/icon"></path>
                    </g>
                </g>
            </g>
        </g>
    </g>
</svg>