<?xml version="1.0" encoding="UTF-8"?>
<svg width="16px" height="14px" viewBox="0 0 16 14" version="1.1" xmlns="http://www.w3.org/2000/svg" xmlns:xlink="http://www.w3.org/1999/xlink">
    <!-- Generator: Sketch 48.2 (47327) - http://www.bohemiancoding.com/sketch -->
    <title>like/icon</title>
    <desc>Created with Sketch.</desc>
    <defs></defs>
    <g id="post/horizontal/like" stroke="none" stroke-width="1" fill="none" fill-rule="evenodd" transform="translate(-263.000000, -240.000000)">
        <g fill="#F44336" fill-rule="nonzero" id="footer">
            <g transform="translate(16.000000, 236.000000)">
                <g id="likes" transform="translate(247.000000, 4.000000)">
                    <path d="M14.7076375,1.29973475 C13.8698188,0.465878949 12.7606418,0.0101278032 11.5768413,0.0101278032 C10.3930408,0.0101278032 9.28047183,0.469254883 8.44265313,1.30311068 L8.0050879,1.73860622 L7.56073871,1.29635881 C6.72292002,0.462503014 5.60695908,0 4.42315857,0 C3.24275005,0 2.13018109,0.45912708 1.29575437,1.28960694 C0.457935675,2.12346274 -0.00337340501,3.23076923 1.8573515e-05,4.40897034 C1.8573515e-05,5.58717145 0.464719632,6.691102 1.30253833,7.5249578 L7.672674,13.8649626 C7.76086545,13.9527369 7.87958469,14 7.99491196,14 C8.11023923,14 8.22895848,13.9561129 8.31714992,13.8683386 L14.7008535,7.53846154 C15.5386722,6.70460574 15.9999813,5.59729925 15.9999813,4.41909814 C16.0033733,3.24089703 15.5454562,2.13359055 14.7076375,1.29973475 Z" id="like/icon"></path>
                </g>
            </g>
        </g>
    </g>
</svg>