<?xml version="1.0" encoding="UTF-8"?>
<svg width="15px" height="15px" viewBox="0 0 15 15" version="1.1" xmlns="http://www.w3.org/2000/svg" xmlns:xlink="http://www.w3.org/1999/xlink">
    <!-- Generator: Sketch 48.2 (47327) - http://www.bohemiancoding.com/sketch -->
    <title>icon/followers</title>
    <desc>Created with Sketch.</desc>
    <defs>
        <linearGradient x1="49.9982785%" y1="0.00343633153%" x2="49.9982785%" y2="99.999994%" id="linearGradient-1">
            <stop stop-color="#2AF598" offset="0%"></stop>
            <stop stop-color="#009EFD" offset="100%"></stop>
        </linearGradient>
    </defs>
    <g id="Symbols" stroke="none" stroke-width="1" fill="none" fill-rule="evenodd">
        <g id="icon/followers" fill="url(#linearGradient-1)" fill-rule="nonzero">
            <g id="Shape">
                <path d="M8.90088867,7.25123829 C8.90088867,7.01311143 8.8753418,6.78084399 8.82723633,6.55686763 C9.01538086,6.59026633 9.20891602,6.6077567 9.40649414,6.6077567 C10.8443555,6.6077567 12.1236621,7.29755701 12.932373,8.36312198 L13.7266406,7.4787596 C13.1395312,6.76631263 12.3799219,6.20128868 11.5125586,5.84752615 C12.2438086,5.24101751 12.7103906,4.32592247 12.7103906,3.3038637 C12.7103906,1.48214049 11.2282617,0 9.40649414,0 C7.58472656,0 6.10262695,1.48214049 6.10262695,3.303893 C6.10262695,3.54201986 6.12817383,3.774258 6.1762793,3.99823436 C5.98816406,3.96483566 5.79459961,3.94734529 5.59702148,3.94734529 C3.77525391,3.94734529 2.2931543,5.42948578 2.2931543,7.25123829 C2.2931543,8.27320917 2.75964844,9.18821631 3.49078125,9.79475426 C1.44547852,10.6286084 0,12.6385362 0,14.9800487 L1.17213867,14.9800487 C1.17213867,12.5401566 3.15711914,10.5551606 5.59699219,10.5551606 C7.41875977,10.5551313 8.90088867,9.0730201 8.90088867,7.25123829 Z M9.40649414,1.17214783 C10.5819141,1.17214783 11.5382227,2.1284346 11.5382227,3.303893 C11.5382227,4.4793514 10.5819141,5.43560887 9.40649414,5.43560887 C8.23107422,5.43560887 7.27476562,4.4793221 7.27476562,3.3038637 C7.27476562,2.1284053 8.23107422,1.17214783 9.40649414,1.17214783 Z M5.59702148,9.38298346 C4.42160156,9.38298346 3.46529297,8.42669669 3.46529297,7.25123829 C3.46529297,6.07577989 4.42160156,5.11949312 5.59702148,5.11949312 C6.77244141,5.11949312 7.72875,6.07580919 7.72875,7.25123829 C7.72875,8.4266674 6.77244141,9.38298346 5.59702148,9.38298346 Z M15,9.56948882 L10.122627,15 L6.95118164,11.9811092 L7.75930664,11.1320792 L10.0567676,13.3190201 L14.1279199,8.78623075 L15,9.56948882 Z"></path>
            </g>
        </g>
    </g>
</svg>