<?xml version="1.0" encoding="UTF-8"?>
<svg width="20px" height="20px" viewBox="0 0 20 20" version="1.1" xmlns="http://www.w3.org/2000/svg" xmlns:xlink="http://www.w3.org/1999/xlink">
    <!-- Generator: Sketch 48.2 (47327) - http://www.bohemiancoding.com/sketch -->
    <title>icon/logout</title>
    <desc>Created with Sketch.</desc>
    <defs></defs>
    <g id="icon/logout" stroke="none" stroke-width="1" fill="none" fill-rule="evenodd">
        <g fill="#FFFFFF" fill-rule="nonzero" id="Shape">
            <path d="M17.7777604,0 L2.22223958,0 C0.994427083,0 0,0.994427083 0,2.22223958 L0,6.66666667 L2.22223958,6.66666667 L2.22223958,2.22223958 L17.7778125,2.22223958 L17.7778125,17.7778125 L2.22223958,17.7778125 L2.22223958,13.3333333 L0,13.3333333 L0,17.7777604 C0,19.0055729 0.994427083,20 2.22223958,20 L17.7778125,20 C19.0055729,20 20,19.0055729 20,17.7777604 L20,2.22223958 C20,0.994427083 19.0055729,0 17.7777604,0 Z"></path>
            <polygon points="7.87223958 14.0971301 9.44442708 15.7142857 15 10 9.44442708 4.28571429 7.87223958 5.90286995 10.7444271 8.85716429 0 8.85716429 0 11.1428357 10.7444271 11.1428357"></polygon>
        </g>
    </g>
</svg>