<?xml version="1.0" encoding="UTF-8"?>
<svg width="16px" height="14px" viewBox="0 0 16 14" version="1.1" xmlns="http://www.w3.org/2000/svg" xmlns:xlink="http://www.w3.org/1999/xlink">
    <!-- Generator: Sketch 48.2 (47327) - http://www.bohemiancoding.com/sketch -->
    <title>like/icon</title>
    <desc>Created with Sketch.</desc>
    <defs></defs>
    <g id="search-result/post/horizontal/no-like" stroke="none" stroke-width="1" fill="none" fill-rule="evenodd" transform="translate(-263.000000, -16.000000)">
        <g fill="#4A4A4A" fill-rule="nonzero" id="header">
            <g transform="translate(16.000000, 5.057971)">
                <g id="counts" transform="translate(247.000000, 10.079710)">
                    <g id="likes">
                        <path d="M14.7076375,2.16205359 C13.8698188,1.32819779 12.7606418,0.872446644 11.5768413,0.872446644 C10.3930408,0.872446644 9.28047183,1.33157372 8.44265313,2.16542952 L8.0050879,2.60092506 L7.56073871,2.15867765 C6.72292002,1.32482185 5.60695908,0.862318841 4.42315857,0.862318841 C3.24275005,0.862318841 2.13018109,1.32144592 1.29575437,2.15192579 C0.457935675,2.98578158 -0.00337340501,4.09308807 1.8573515e-05,5.27128918 C1.8573515e-05,6.44949029 0.464719632,7.55342084 1.30253833,8.38727664 L7.672674,14.7272815 C7.76086545,14.8150558 7.87958469,14.8623188 7.99491196,14.8623188 C8.11023923,14.8623188 8.22895848,14.8184317 8.31714992,14.7306574 L14.7008535,8.40078038 C15.5386722,7.56692458 15.9999813,6.45961809 15.9999813,5.28141698 C16.0033733,4.10321587 15.5454562,2.99590939 14.7076375,2.16205359 Z M13.9844172,7.84711186 L7.99496094,13.8623188 L2.01891142,7.83697387 C1.36198169,7.17462523 1,6.29599949 1,5.35992515 C1,4.4238508 1.35863001,3.54522506 2.01555973,2.88625576 C2.66913778,2.22728646 3.54057518,1.86231884 4.46563949,1.86231884 C5.39405548,1.86231884 6.26884456,2.22728646 6.92577429,2.88963509 L7.68325449,3.65336362 C7.86089365,3.83246809 8.14578665,3.83246809 8.32342581,3.65336362 L9.07420264,2.89639375 C9.73113237,2.23404511 10.6059214,1.8690775 11.5309858,1.8690775 C12.4560501,1.8690775 13.3274875,2.23404511 13.9844172,2.89301442 C14.6413469,3.55536305 14.9999769,4.43398879 14.9999769,5.37006314 C15.0033286,6.30613748 14.6413469,7.18476322 13.9844172,7.84711186 Z" id="like/icon"></path>
                    </g>
                </g>
            </g>
        </g>
    </g>
</svg>